<svg width="34" height="34" viewBox="0 0 34 34" fill="none" xmlns="http://www.w3.org/2000/svg">
<g clip-path="url(#clip0_115:359)">
<path d="M8.20644 16.067L23.9324 0.384484C24.4477 -0.129034 25.2819 -0.128171 25.7963 0.38714C26.3102 0.902384 26.3089 1.73704 25.7936 2.25096L11.0037 17.0001L25.7941 31.7491C26.3094 32.2631 26.3107 33.0972 25.7968 33.6125C25.5389 33.8708 25.2011 34 24.8633 34C24.5264 34 24.1899 33.8717 23.9325 33.6152L8.20644 17.9331C7.95828 17.6862 7.81903 17.3502 7.81903 17.0001C7.81903 16.65 7.95868 16.3144 8.20644 16.067Z" fill="#333333"/>
</g>
<defs>
<clipPath id="clip0_115:359">
<rect width="34" height="34" fill="white" transform="matrix(-1 0 0 1 34 0)"/>
</clipPath>
</defs>
</svg>
