<svg width="40" height="41" viewBox="0 0 40 41" fill="none" xmlns="http://www.w3.org/2000/svg">
<path d="M39 20.5C39 31.293 30.4703 40 20 40C9.52972 40 1 31.293 1 20.5C1 9.70703 9.52972 1 20 1C30.4703 1 39 9.70703 39 20.5Z" stroke="#000" stroke-width="2"/>
<path d="M25.0684 18.5606L24.7368 21.4144C24.7225 21.547 24.6608 21.6694 24.5636 21.7581C24.4664 21.8467 24.3406 21.8953 24.2105 21.8945H21.3157V30.3643C21.3165 30.4654 21.2781 30.5627 21.2091 30.635C21.1401 30.7072 21.046 30.7486 20.9473 30.75H17.9973C17.9482 30.7493 17.8998 30.7387 17.8547 30.7188C17.8096 30.6989 17.7688 30.6701 17.7346 30.634C17.7004 30.5979 17.6735 30.5553 17.6553 30.5086C17.6372 30.4618 17.6282 30.4119 17.6289 30.3616L17.6447 21.8945H15.4526C15.313 21.8945 15.1791 21.8377 15.0804 21.7365C14.9817 21.6354 14.9263 21.4981 14.9263 21.3551V18.5012C14.9263 18.3582 14.9817 18.221 15.0804 18.1198C15.1791 18.0186 15.313 17.9618 15.4526 17.9618H17.6315V15.1943C17.6315 11.9925 19.4894 10.25 22.2105 10.25H24.4394C24.579 10.25 24.7129 10.3068 24.8116 10.408C24.9103 10.5092 24.9657 10.6464 24.9657 10.7895V13.1928C24.9657 13.3359 24.9103 13.4731 24.8116 13.5743C24.7129 13.6755 24.579 13.7323 24.4394 13.7323H23.0736C21.5947 13.7566 21.3157 14.4822 21.3157 15.5665V17.9537H24.5552C24.6291 17.955 24.7019 17.9722 24.7689 18.0043C24.8359 18.0363 24.8955 18.0825 24.9439 18.1398C24.9923 18.197 25.0284 18.2641 25.0499 18.3366C25.0713 18.4091 25.0776 18.4854 25.0684 18.5606Z" fill="#000"/>
</svg>
