<svg width="11" height="19" viewBox="0 0 11 19" fill="none" xmlns="http://www.w3.org/2000/svg">
<path d="M10.1881 7.7498L9.88138 10.3252C9.86815 10.4448 9.81107 10.5553 9.72116 10.6353C9.63125 10.7153 9.5149 10.7592 9.39454 10.7585H6.71691V18.4019C6.71756 18.4932 6.68209 18.581 6.61825 18.6462C6.55441 18.7114 6.46737 18.7487 6.37612 18.75H3.64737C3.60197 18.7494 3.55715 18.7398 3.51545 18.7218C3.47376 18.7039 3.43601 18.6779 3.40436 18.6453C3.37272 18.6128 3.34779 18.5743 3.33102 18.5321C3.31424 18.4899 3.30593 18.4449 3.30658 18.3995L3.32118 10.7585H1.29348C1.16436 10.7585 1.04053 10.7072 0.949233 10.6159C0.857932 10.5246 0.806641 10.4008 0.806641 10.2716V7.69625C0.806641 7.56713 0.857932 7.4433 0.949233 7.352C1.04053 7.2607 1.16436 7.20941 1.29348 7.20941H3.30901V4.71191C3.30901 1.8225 5.02756 0.25 7.54454 0.25H9.60632C9.73544 0.25 9.85927 0.301292 9.95057 0.392592C10.0419 0.483893 10.0932 0.607724 10.0932 0.736842V2.90572C10.0932 3.03484 10.0419 3.15867 9.95057 3.24997C9.85927 3.34127 9.73544 3.39257 9.60632 3.39257H8.34296C6.97493 3.41447 6.71691 4.06928 6.71691 5.04783V7.2021H9.71342C9.78179 7.20328 9.84914 7.21884 9.91109 7.24777C9.97304 7.2767 10.0282 7.31836 10.073 7.37003C10.1178 7.4217 10.1512 7.48222 10.171 7.54765C10.1908 7.61309 10.1967 7.68197 10.1881 7.7498Z" fill="white"/>
</svg>
