<svg width="19" height="19" viewBox="0 0 19 19" fill="none" xmlns="http://www.w3.org/2000/svg">
<g clip-path="url(#clip0_487:1712)">
<path d="M18.9812 5.58605C18.9367 4.57651 18.7734 3.88246 18.5396 3.28105C18.2983 2.64267 17.9272 2.07114 17.4409 1.59601C16.9658 1.1135 16.3904 0.738563 15.7595 0.501074C15.1546 0.267211 14.4642 0.103956 13.4546 0.0594446C12.4375 0.011164 12.1146 0 9.53505 0C6.95544 0 6.63256 0.011164 5.61925 0.0556749C4.60971 0.100186 3.91565 0.263586 3.3144 0.497305C2.67587 0.738563 2.10434 1.10973 1.62922 1.59601C1.1467 2.07114 0.77191 2.64644 0.534277 3.27743C0.300413 3.88246 0.137159 4.57274 0.0926476 5.58228C0.0443671 6.59936 0.0332031 6.92225 0.0332031 9.50186C0.0332031 12.0815 0.0443671 12.4043 0.088878 13.4177C0.133389 14.4272 0.296789 15.1213 0.530652 15.7227C0.77191 16.361 1.1467 16.9326 1.62922 17.4077C2.10434 17.8902 2.67964 18.2651 3.31063 18.5026C3.91565 18.7365 4.60594 18.8998 5.61562 18.9443C6.62879 18.9889 6.95182 18.9999 9.53142 18.9999C12.111 18.9999 12.4339 18.9889 13.4472 18.9443C14.4568 18.8998 15.1508 18.7365 15.7521 18.5026C17.029 18.009 18.0385 16.9994 18.5322 15.7227C18.7659 15.1176 18.9293 14.4272 18.9738 13.4177C19.0183 12.4043 19.0295 12.0815 19.0295 9.50186C19.0295 6.92225 19.0257 6.59936 18.9812 5.58605ZM17.2702 13.3434C17.2293 14.2713 17.0735 14.7724 16.9436 15.1065C16.6243 15.9342 15.9674 16.5911 15.1396 16.9104C14.8056 17.0403 14.3009 17.1962 13.3766 17.2369C12.3745 17.2816 12.0739 17.2926 9.53882 17.2926C7.00373 17.2926 6.6994 17.2816 5.70088 17.2369C4.77296 17.1962 4.27189 17.0403 3.93784 16.9104C3.52593 16.7582 3.151 16.5169 2.84667 16.2014C2.53118 15.8933 2.28992 15.5221 2.13768 15.1102C2.00778 14.7762 1.85192 14.2713 1.81117 13.3472C1.76652 12.345 1.7555 12.0443 1.7555 9.50925C1.7555 6.97416 1.76652 6.66983 1.81117 5.67145C1.85192 4.74353 2.00778 4.24246 2.13768 3.90841C2.28992 3.49636 2.53118 3.12157 2.85044 2.81709C3.15839 2.5016 3.52956 2.26034 3.94161 2.10825C4.27566 1.97835 4.7805 1.82248 5.70465 1.7816C6.70679 1.73709 7.00749 1.72592 9.54244 1.72592C12.0813 1.72592 12.3819 1.73709 13.3804 1.7816C14.3083 1.82248 14.8094 1.97835 15.1434 2.10825C15.5553 2.26034 15.9303 2.5016 16.2346 2.81709C16.5501 3.12519 16.7913 3.49636 16.9436 3.90841C17.0735 4.24246 17.2293 4.74716 17.2702 5.67145C17.3147 6.6736 17.3259 6.97416 17.3259 9.50925C17.3259 12.0443 17.3147 12.3413 17.2702 13.3434Z" fill="white"/>
<path d="M9.53513 4.62109C6.84055 4.62109 4.6543 6.80721 4.6543 9.50193C4.6543 12.1967 6.84055 14.3828 9.53513 14.3828C12.2299 14.3828 14.416 12.1967 14.416 9.50193C14.416 6.80721 12.2299 4.62109 9.53513 4.62109ZM9.53513 12.668C7.78703 12.668 6.36906 11.2502 6.36906 9.50193C6.36906 7.75368 7.78703 6.33585 9.53513 6.33585C11.2834 6.33585 12.7012 7.75368 12.7012 9.50193C12.7012 11.2502 11.2834 12.668 9.53513 12.668Z" fill="white"/>
<path d="M15.7488 4.42803C15.7488 5.05727 15.2386 5.56748 14.6092 5.56748C13.9799 5.56748 13.4697 5.05727 13.4697 4.42803C13.4697 3.79864 13.9799 3.28857 14.6092 3.28857C15.2386 3.28857 15.7488 3.79864 15.7488 4.42803Z" fill="white"/>
</g>
<defs>
<clipPath id="clip0_487:1712">
<rect width="19" height="19" fill="white"/>
</clipPath>
</defs>
</svg>
