<svg width="40" height="41" viewBox="0 0 40 41" fill="none" xmlns="http://www.w3.org/2000/svg">
<path d="M39 20.5C39 31.293 30.4703 40 20 40C9.52972 40 1 31.293 1 20.5C1 9.70703 9.52972 1 20 1C30.4703 1 39 9.70703 39 20.5Z" stroke="#000" stroke-width="2"/>
<path d="M29 22.4219V29H25.1412V22.8627C25.1412 21.3217 24.584 20.2693 23.1869 20.2693C22.1206 20.2693 21.4872 20.9778 21.2075 21.6639C21.1059 21.909 21.0797 22.2495 21.0797 22.5934V28.9997H17.2206C17.2206 28.9997 17.2724 18.6052 17.2206 17.5292H21.08V19.1547C21.0723 19.1675 21.0613 19.18 21.0544 19.1922H21.08V19.1547C21.5929 18.3748 22.5074 17.2598 24.5578 17.2598C27.0966 17.2598 29 18.8993 29 22.4219ZM13.1837 12C11.8636 12 11 12.8564 11 13.9816C11 15.0829 11.8386 15.964 13.133 15.964H13.1581C14.504 15.964 15.3409 15.0829 15.3409 13.9816C15.3152 12.8564 14.504 12 13.1837 12ZM11.2294 29H15.087V17.5292H11.2294V29Z" fill="#000"/>
</svg>
