<svg width="20" height="20" viewBox="0 0 20 20" fill="none" xmlns="http://www.w3.org/2000/svg">
<g clip-path="url(#clip0_115:407)">
<path d="M9.32666 5.03686L9.32656 5.03697L1.02405 13.6012L1.024 13.6013C0.658037 13.979 0.658679 14.5877 1.02586 14.9647L1.02591 14.9647C1.39707 15.3456 2.00114 15.3445 2.37118 14.9628L2.37118 14.9628L10 7.0935L17.6288 14.9631L17.6289 14.9631C17.9989 15.3448 18.6027 15.3458 18.9739 14.965L18.974 14.965C19.1586 14.7754 19.25 14.5277 19.25 14.2822C19.25 14.0373 19.1592 13.7906 18.9758 13.6013L18.9758 13.6013L10.6737 5.03718C10.4965 4.85398 10.254 4.75 10 4.75C9.74576 4.75 9.50376 4.85439 9.32666 5.03686Z" fill="#F08976" stroke="#F08976" stroke-width="0.5"/>
</g>
<defs>
<clipPath id="clip0_115:407">
<rect width="20" height="20" fill="white" transform="translate(0 20) rotate(-90)"/>
</clipPath>
</defs>
</svg>
