<svg width="20" height="12" viewBox="0 0 20 12" fill="none" xmlns="http://www.w3.org/2000/svg">
<path d="M9.32666 1.03686L9.32656 1.03697L1.02405 9.60122L1.024 9.60128C0.658037 9.979 0.658679 10.5877 1.02586 10.9647L1.02591 10.9647C1.39707 11.3456 2.00114 11.3445 2.37118 10.9628L2.37118 10.9628L10 3.0935L17.6288 10.9631L17.6289 10.9631C17.9989 11.3448 18.6027 11.3458 18.9739 10.965L18.974 10.965C19.1586 10.7754 19.25 10.5277 19.25 10.2822C19.25 10.0373 19.1592 9.79062 18.9758 9.60131L18.9758 9.60126L10.6737 1.03718C10.4965 0.853976 10.254 0.75 10 0.75C9.74576 0.75 9.50376 0.854394 9.32666 1.03686Z" fill="#A90841" stroke="#A90841" stroke-width="0.5"/>
</svg>
