<svg width="22" height="18" viewBox="0 0 22 18" fill="none" xmlns="http://www.w3.org/2000/svg">
<path d="M21.8319 2.2952C21.0391 2.64674 20.1863 2.88451 19.292 2.9907C20.2051 2.4436 20.9059 1.57793 21.2366 0.544739C20.3822 1.05161 19.4354 1.41931 18.4286 1.6175C17.622 0.758435 16.4727 0.221558 15.2001 0.221558C12.7584 0.221558 10.7781 2.20187 10.7781 4.64354C10.7781 4.99013 10.8173 5.3275 10.8932 5.65134C7.21815 5.46699 3.95962 3.70664 1.77848 1.0305C1.39791 1.68346 1.1796 2.4436 1.1796 3.25386C1.1796 4.78765 1.96084 6.14172 3.14672 6.9345C2.4222 6.91175 1.73989 6.71289 1.14399 6.38081C1.14366 6.3996 1.14366 6.4184 1.14366 6.43687C1.14366 8.57943 2.66855 10.3665 4.69107 10.7724C4.3204 10.874 3.92895 10.9278 3.5263 10.9278C3.24071 10.9278 2.96403 10.9004 2.69427 10.849C3.25687 12.6053 4.8896 13.8839 6.82506 13.9198C5.31138 15.106 3.40494 15.8128 1.33262 15.8128C0.976458 15.8128 0.623597 15.792 0.27832 15.7508C2.23423 17.0059 4.55916 17.7377 7.05623 17.7377C15.1899 17.7377 19.6379 10.9997 19.6379 5.15568C19.6379 4.96408 19.6336 4.77314 19.625 4.58385C20.4897 3.96057 21.2393 3.18197 21.8319 2.2952Z" fill="white"/>
</svg>
