<svg width="19" height="19" viewBox="0 0 19 19" fill="none" xmlns="http://www.w3.org/2000/svg">
<path d="M16.026 2.9738C14.4866 1.41693 12.4413 0.461753 10.2593 0.280709C8.07736 0.0996655 5.90259 0.704687 4.12762 1.98654C2.35265 3.2684 1.09447 5.14261 0.58022 7.27081C0.0659738 9.399 0.329556 11.6409 1.32338 13.5918L0.349693 18.3191C0.339267 18.3663 0.338863 18.4151 0.348507 18.4625C0.358151 18.5099 0.377628 18.5547 0.405679 18.5941C0.445852 18.6538 0.503276 18.6997 0.570268 18.7258C0.63726 18.7519 0.710625 18.7569 0.780548 18.7402L5.40555 17.6423C7.35109 18.6101 9.57692 18.8561 11.6868 18.3366C13.7968 17.817 15.6539 16.5657 16.9276 14.8052C18.2014 13.0447 18.8091 10.8894 18.6427 8.72283C18.4763 6.55626 17.5464 4.51904 16.0187 2.9738H16.026ZM14.5801 14.5047C13.5154 15.5674 12.1444 16.2698 10.6599 16.513C9.17533 16.7562 7.6519 16.528 6.30377 15.8605L5.65627 15.5392L2.81555 16.211V16.1745L3.41436 13.3095L3.09792 12.6863C2.4086 11.3345 2.16521 9.7991 2.40268 8.3004C2.64014 6.8017 3.34626 5.41674 4.41969 4.34426C5.76753 2.99782 7.59475 2.24152 9.49989 2.24152C11.405 2.24152 13.2322 2.99782 14.5801 4.34426L14.6117 4.38807C15.942 5.73879 16.6847 7.5605 16.6778 9.45632C16.671 11.3521 15.9152 13.1684 14.5752 14.5095L14.5801 14.5047Z" fill="white"/>
<path d="M14.3294 12.4211C13.9813 12.9688 13.4287 13.6382 12.7398 13.8062C11.5227 14.0983 9.67028 13.8062 7.35048 11.6616L7.32127 11.6349C5.30331 9.75078 4.76778 8.18072 4.88706 6.93684C4.95765 6.22848 5.54673 5.59072 6.04331 5.17204C6.12226 5.10547 6.21569 5.05829 6.31613 5.03427C6.41657 5.01025 6.52123 5.01006 6.62176 5.03371C6.72229 5.05737 6.81589 5.10421 6.89508 5.17049C6.97427 5.23678 7.03686 5.32067 7.07785 5.41546L7.82515 7.1048C7.87394 7.21354 7.89223 7.33351 7.87808 7.45185C7.86393 7.57019 7.81787 7.68246 7.74482 7.77664L7.36508 8.26348C7.28616 8.36454 7.23914 8.48683 7.23003 8.61473C7.22093 8.74263 7.25015 8.87035 7.31396 8.98157C7.67467 9.51321 8.10627 9.99312 8.59679 10.408C9.12456 10.9159 9.7231 11.3447 10.3738 11.6811C10.4925 11.729 10.6228 11.7404 10.7481 11.714C10.8734 11.6875 10.988 11.6244 11.0773 11.5326L11.513 11.0896C11.5959 11.0004 11.7019 10.936 11.8191 10.9033C11.9364 10.8707 12.0605 10.8711 12.1775 10.9046L13.9545 11.4133C14.0552 11.442 14.1477 11.4939 14.2246 11.565C14.3015 11.636 14.3606 11.7242 14.3971 11.8223C14.4336 11.9204 14.4465 12.0258 14.4347 12.1298C14.4229 12.2338 14.3868 12.3336 14.3294 12.4211Z" fill="white"/>
</svg>
