<svg width="40" height="41" viewBox="0 0 40 41" fill="none" xmlns="http://www.w3.org/2000/svg">
<path d="M39 20.5C39 31.293 30.4703 40 20 40C9.52972 40 1 31.293 1 20.5C1 9.70703 9.52972 1 20 1C30.4703 1 39 9.70703 39 20.5Z" stroke="#000" stroke-width="2"/>
<path d="M29.9993 14.8942C29.2636 15.2153 28.4723 15.4325 27.6424 15.5295C28.4897 15.0297 29.14 14.239 29.4469 13.2952C28.6541 13.7582 27.7755 14.0941 26.8413 14.2751C26.0928 13.4904 25.0263 13 23.8455 13C21.5798 13 19.7422 14.8089 19.7422 17.0392C19.7422 17.3558 19.7786 17.664 19.849 17.9598C16.4389 17.7914 13.4152 16.1834 11.3913 13.7389C11.0382 14.3354 10.8356 15.0297 10.8356 15.7698C10.8356 17.1709 11.5605 18.4077 12.6609 19.1319C11.9886 19.1111 11.3555 18.9295 10.8025 18.6261C10.8022 18.6433 10.8022 18.6605 10.8022 18.6773C10.8022 20.6345 12.2172 22.2668 14.0939 22.6377C13.75 22.7304 13.3868 22.7795 13.0131 22.7795C12.7481 22.7795 12.4914 22.7545 12.2411 22.7075C12.7631 24.3119 14.2782 25.4798 16.0741 25.5126C14.6695 26.5962 12.9005 27.2417 10.9776 27.2417C10.6471 27.2417 10.3197 27.2227 9.99927 27.1851C11.8142 28.3316 13.9715 29 16.2886 29C23.836 29 27.9634 22.8452 27.9634 17.5071C27.9634 17.332 27.9594 17.1576 27.9515 16.9847C28.7538 16.4154 29.4494 15.7042 29.9993 14.8942Z" fill="#000"/>
</svg>
